<?xml version="1.0" encoding="utf-8"?>
<!-- Generator: Adobe Illustrator 16.0.0, SVG Export Plug-In . SVG Version: 6.00 Build 0)  -->
<!DOCTYPE svg PUBLIC "-//W3C//DTD SVG 1.1//EN" "http://www.w3.org/Graphics/SVG/1.1/DTD/svg11.dtd">
<svg version="1.1" id="Слой_1" xmlns="http://www.w3.org/2000/svg" xmlns:xlink="http://www.w3.org/1999/xlink" x="0px" y="0px"
	 width="26px" height="24px" viewBox="0 0 26 24" enable-background="new 0 0 26 24" xml:space="preserve">
<g>
	<g id="XMLID_1_">
		<g>
			<path fill="#FFFEFE" d="M23.46,21.62c0.04,0.6-0.14,1.17-0.52,1.61c-0.381,0.449-0.91,0.72-1.49,0.77h-0.16
				c-1.14,0-2.09-0.91-2.17-2.07c-0.08-1.21,0.82-2.279,2.02-2.37C22.34,19.48,23.38,20.41,23.46,21.62z"/>
			<path fill="#FFFEFE" d="M7.66,19.56c1.2,0,2.18,1,2.18,2.221C9.84,23,8.86,24,7.66,24c-1.2,0-2.18-1-2.18-2.22
				C5.48,20.56,6.46,19.56,7.66,19.56z"/>
			<path fill="#FFFEFE" d="M25.04,4.89c0.32,0,0.62,0.17,0.8,0.44c0.17,0.28,0.21,0.62,0.08,0.93L21.53,16.53
				c-0.15,0.359-0.5,0.59-0.891,0.59H8.57c-0.43,0-0.81-0.3-0.92-0.72L3.72,1.96H0.96C0.43,1.95,0,1.51,0,0.98C0,0.44,0.43,0,0.96,0
				h3.48c0.43,0,0.82,0.29,0.93,0.72L9.3,15.16H20l3.56-8.31H11.7c-0.53-0.01-0.96-0.45-0.96-0.98c0-0.54,0.43-0.98,0.96-0.98H25.04
				z"/>
		</g>
		<g>
		</g>
	</g>
</g>
</svg>
