<?xml version="1.0" encoding="utf-8"?>
<!-- Generator: Adobe Illustrator 16.0.0, SVG Export Plug-In . SVG Version: 6.00 Build 0)  -->
<!DOCTYPE svg PUBLIC "-//W3C//DTD SVG 1.1//EN" "http://www.w3.org/Graphics/SVG/1.1/DTD/svg11.dtd">
<svg version="1.1" id="Слой_1" xmlns="http://www.w3.org/2000/svg" xmlns:xlink="http://www.w3.org/1999/xlink" x="0px" y="0px"
	 width="32px" height="29px" viewBox="0 0 32 29" enable-background="new 0 0 32 29" xml:space="preserve">
<g>
	<g id="XMLID_1_">
		<g>
			<path fill="#E2E0E0" d="M28.88,26.12c0.04,0.729-0.18,1.42-0.649,1.95c-0.461,0.54-1.12,0.88-1.841,0.93H26.2
				c-1.4,0-2.57-1.1-2.66-2.5c-0.1-1.46,1-2.76,2.479-2.86C27.5,23.54,28.78,24.67,28.88,26.12z"/>
			<path fill="#E2E0E0" d="M9.52,23.73c1.41,0.039,2.54,1.18,2.59,2.59c-0.05,1.479-1.29,2.64-2.77,2.59
				c-1.41-0.04-2.55-1.18-2.59-2.59C6.8,24.84,8.04,23.68,9.52,23.73z"/>
			<path fill="#E2E0E0" d="M31.9,7.56l-5.41,12.42c-0.2,0.43-0.61,0.71-1.08,0.71H10.55c-0.53,0-1-0.36-1.14-0.87L4.58,2.36h-3.4
				C0.53,2.36,0,1.83,0,1.18C0,0.53,0.53,0,1.18,0h4.28C6,0,6.47,0.35,6.61,0.87l4.83,17.45h13.18L29,8.27H14.4
				c-0.65,0-1.18-0.53-1.18-1.18c0-0.65,0.53-1.18,1.18-1.18h16.41c0.4,0,0.771,0.2,0.99,0.53C32.02,6.78,32.06,7.19,31.9,7.56z"/>
		</g>
		<g>
		</g>
	</g>
</g>
</svg>
